<mxfile host="app.diagrams.net" modified="2023-04-20T03:08:12.976Z" agent="Mozilla/5.0 (Windows NT 10.0; Win64; x64) AppleWebKit/537.36 (KHTML, like Gecko) Chrome/95.0.4638.69 Safari/537.36" etag="sOZsHWL0G2Zp2bHz4QmY" version="21.1.8" type="github">
  <diagram id="C5RBs43oDa-KdzZeNtuy" name="Page-1">
    <mxGraphModel dx="1648" dy="2077" grid="1" gridSize="10" guides="1" tooltips="1" connect="1" arrows="1" fold="1" page="1" pageScale="1" pageWidth="827" pageHeight="1169" math="0" shadow="0">
      <root>
        <mxCell id="WIyWlLk6GJQsqaUBKTNV-0" />
        <mxCell id="WIyWlLk6GJQsqaUBKTNV-1" parent="WIyWlLk6GJQsqaUBKTNV-0" />
        <mxCell id="U-eVMn6NhVeavHrj4dIR-4" value="" style="edgeStyle=orthogonalEdgeStyle;rounded=0;orthogonalLoop=1;jettySize=auto;html=1;" edge="1" parent="WIyWlLk6GJQsqaUBKTNV-1" source="U-eVMn6NhVeavHrj4dIR-0" target="U-eVMn6NhVeavHrj4dIR-3">
          <mxGeometry relative="1" as="geometry" />
        </mxCell>
        <mxCell id="U-eVMn6NhVeavHrj4dIR-0" value="传感器" style="whiteSpace=wrap;html=1;rounded=1;glass=0;strokeWidth=1;shadow=0;" vertex="1" parent="WIyWlLk6GJQsqaUBKTNV-1">
          <mxGeometry x="389" y="100" width="120" height="60" as="geometry" />
        </mxCell>
        <mxCell id="U-eVMn6NhVeavHrj4dIR-6" value="" style="edgeStyle=orthogonalEdgeStyle;rounded=0;orthogonalLoop=1;jettySize=auto;html=1;" edge="1" parent="WIyWlLk6GJQsqaUBKTNV-1" source="U-eVMn6NhVeavHrj4dIR-3" target="U-eVMn6NhVeavHrj4dIR-5">
          <mxGeometry relative="1" as="geometry" />
        </mxCell>
        <mxCell id="U-eVMn6NhVeavHrj4dIR-3" value="车辆软硬件信息采集" style="whiteSpace=wrap;html=1;rounded=1;glass=0;strokeWidth=1;shadow=0;" vertex="1" parent="WIyWlLk6GJQsqaUBKTNV-1">
          <mxGeometry x="389" y="240" width="120" height="60" as="geometry" />
        </mxCell>
        <mxCell id="U-eVMn6NhVeavHrj4dIR-10" value="" style="edgeStyle=orthogonalEdgeStyle;rounded=0;orthogonalLoop=1;jettySize=auto;html=1;" edge="1" parent="WIyWlLk6GJQsqaUBKTNV-1" source="U-eVMn6NhVeavHrj4dIR-5" target="U-eVMn6NhVeavHrj4dIR-9">
          <mxGeometry relative="1" as="geometry" />
        </mxCell>
        <mxCell id="U-eVMn6NhVeavHrj4dIR-5" value="AI数据分析" style="whiteSpace=wrap;html=1;rounded=1;glass=0;strokeWidth=1;shadow=0;" vertex="1" parent="WIyWlLk6GJQsqaUBKTNV-1">
          <mxGeometry x="389" y="380" width="120" height="60" as="geometry" />
        </mxCell>
        <mxCell id="U-eVMn6NhVeavHrj4dIR-11" style="edgeStyle=orthogonalEdgeStyle;rounded=0;orthogonalLoop=1;jettySize=auto;html=1;exitX=0;exitY=0.5;exitDx=0;exitDy=0;entryX=0;entryY=0.5;entryDx=0;entryDy=0;" edge="1" parent="WIyWlLk6GJQsqaUBKTNV-1" source="U-eVMn6NhVeavHrj4dIR-9" target="U-eVMn6NhVeavHrj4dIR-0">
          <mxGeometry relative="1" as="geometry">
            <Array as="points">
              <mxPoint x="319" y="550" />
              <mxPoint x="319" y="130" />
            </Array>
          </mxGeometry>
        </mxCell>
        <mxCell id="U-eVMn6NhVeavHrj4dIR-14" value="" style="edgeStyle=orthogonalEdgeStyle;rounded=0;orthogonalLoop=1;jettySize=auto;html=1;" edge="1" parent="WIyWlLk6GJQsqaUBKTNV-1" source="U-eVMn6NhVeavHrj4dIR-9" target="U-eVMn6NhVeavHrj4dIR-13">
          <mxGeometry relative="1" as="geometry" />
        </mxCell>
        <mxCell id="U-eVMn6NhVeavHrj4dIR-9" value="车辆是否健康" style="rhombus;whiteSpace=wrap;html=1;rounded=1;glass=0;strokeWidth=1;shadow=0;" vertex="1" parent="WIyWlLk6GJQsqaUBKTNV-1">
          <mxGeometry x="409" y="510" width="80" height="80" as="geometry" />
        </mxCell>
        <mxCell id="U-eVMn6NhVeavHrj4dIR-12" value="是" style="text;html=1;strokeColor=none;fillColor=none;align=center;verticalAlign=middle;whiteSpace=wrap;rounded=0;" vertex="1" parent="WIyWlLk6GJQsqaUBKTNV-1">
          <mxGeometry x="349" y="520" width="60" height="30" as="geometry" />
        </mxCell>
        <mxCell id="U-eVMn6NhVeavHrj4dIR-13" value="提醒维修保养" style="whiteSpace=wrap;html=1;rounded=1;glass=0;strokeWidth=1;shadow=0;" vertex="1" parent="WIyWlLk6GJQsqaUBKTNV-1">
          <mxGeometry x="389" y="680" width="120" height="60" as="geometry" />
        </mxCell>
        <mxCell id="U-eVMn6NhVeavHrj4dIR-15" value="否" style="text;html=1;strokeColor=none;fillColor=none;align=center;verticalAlign=middle;whiteSpace=wrap;rounded=0;" vertex="1" parent="WIyWlLk6GJQsqaUBKTNV-1">
          <mxGeometry x="439" y="590" width="60" height="30" as="geometry" />
        </mxCell>
        <mxCell id="U-eVMn6NhVeavHrj4dIR-17" style="edgeStyle=orthogonalEdgeStyle;rounded=0;orthogonalLoop=1;jettySize=auto;html=1;exitX=0.5;exitY=1;exitDx=0;exitDy=0;entryX=0.5;entryY=0;entryDx=0;entryDy=0;" edge="1" parent="WIyWlLk6GJQsqaUBKTNV-1" source="U-eVMn6NhVeavHrj4dIR-16" target="U-eVMn6NhVeavHrj4dIR-0">
          <mxGeometry relative="1" as="geometry" />
        </mxCell>
        <mxCell id="U-eVMn6NhVeavHrj4dIR-16" value="开始" style="whiteSpace=wrap;html=1;rounded=1;glass=0;strokeWidth=1;shadow=0;" vertex="1" parent="WIyWlLk6GJQsqaUBKTNV-1">
          <mxGeometry x="389" y="-10" width="120" height="60" as="geometry" />
        </mxCell>
      </root>
    </mxGraphModel>
  </diagram>
</mxfile>
